{
    "asset" : {
        "generator" : "Khronos glTF Blender I/O v3.2.40",
        "version" : "2.0"
    },
    "extensionsUsed" : [
        "KHR_materials_unlit",
        "KHR_lights_punctual"
    ],
    "extensionsRequired" : [
        "KHR_lights_punctual"
    ],
    "extensions" : {
        "KHR_lights_punctual" : {
            "lights" : [
                {
                    "color" : [
                        0.24228084087371826,
                        0.3139885365962982,
                        0.14412856101989746
                    ],
                    "intensity" : 20,
                    "type" : "point",
                    "name" : "PlayerPointLight"
                },
                {
                    "color" : [
                        1,
                        1,
                        1
                    ],
                    "intensity" : 250,
                    "type" : "point",
                    "range" : 4.5,
                    "name" : "StreetLight"
                }
            ]
        }
    },
    "scene" : 0,
    "scenes" : [
        {
            "name" : "Scene",
            "nodes" : [
                2,
                7,
                8
            ]
        }
    ],
    "nodes" : [
        {
            "mesh" : 0,
            "name" : "EyeHole",
            "translation" : [
                0.5,
                0.15000000596046448,
                0.75
            ]
        },
        {
            "extensions" : {
                "KHR_lights_punctual" : {
                    "light" : 0
                }
            },
            "name" : "PlayerPointLight",
            "rotation" : [
                -0.7071068286895752,
                0,
                0,
                0.7071068286895752
            ],
            "translation" : [
                0,
                0,
                -0.6999999284744263
            ]
        },
        {
            "children" : [
                0,
                1
            ],
            "mesh" : 1,
            "name" : "PlayerCharacter",
            "translation" : [
                0,
                0,
                1.7000000476837158
            ]
        },
        {
            "mesh" : 2,
            "name" : "Ground"
        },
        {
            "mesh" : 3,
            "name" : "KerbLeft",
            "rotation" : [
                0,
                0,
                -1,
                7.549790836947068e-08
            ],
            "translation" : [
                0,
                -3.75,
                0.10000000149011612
            ]
        },
        {
            "mesh" : 4,
            "name" : "KerbRight",
            "translation" : [
                0,
                3.75,
                0.10000000149011612
            ]
        },
        {
            "extensions" : {
                "KHR_lights_punctual" : {
                    "light" : 1
                }
            },
            "name" : "StreetLight",
            "rotation" : [
                -0.28416624665260315,
                -0.3420339524745941,
                0.7269423604011536,
                0.5232754945755005
            ],
            "translation" : [
                0,
                2.0999999046325684,
                4
            ]
        },
        {
            "children" : [
                3,
                4,
                5,
                6
            ],
            "name" : "Roadway",
            "scale" : [
                1,
                0.6000000238418579,
                1
            ]
        },
        {
            "mesh" : 5,
            "name" : "EyeHole mesh normals comment",
            "translation" : [
                -7.83004093170166,
                5.813534736633301,
                -0.46370476484298706
            ]
        }
    ],
    "materials" : [
        {
            "extensions" : {
                "KHR_materials_unlit" : {}
            },
            "name" : "EyeHoleMaterial",
            "pbrMetallicRoughness" : {
                "baseColorFactor" : [
                    0,
                    0,
                    0,
                    1
                ],
                "metallicFactor" : 0,
                "roughnessFactor" : 0.9
            }
        },
        {
            "alphaMode" : "BLEND",
            "doubleSided" : true,
            "emissiveFactor" : [
                1,
                1,
                1
            ],
            "name" : "PlayerCharacterMaterial",
            "pbrMetallicRoughness" : {
                "baseColorFactor" : [
                    0.949999988079071,
                    0.949999988079071,
                    0.949999988079071,
                    0.10493826866149902
                ],
                "metallicFactor" : 0,
                "roughnessFactor" : 0.25
            }
        },
        {
            "doubleSided" : true,
            "name" : "GroundMaterial",
            "pbrMetallicRoughness" : {
                "baseColorFactor" : [
                    0.019999999552965164,
                    0.019999999552965164,
                    0.019999999552965164,
                    1
                ],
                "metallicFactor" : 0,
                "roughnessFactor" : 0.949999988079071
            }
        },
        {
            "doubleSided" : true,
            "name" : "KerbMaterial",
            "pbrMetallicRoughness" : {
                "baseColorFactor" : [
                    0.25,
                    0.25,
                    0.25,
                    1
                ],
                "metallicFactor" : 0,
                "roughnessFactor" : 0.949999988079071
            }
        },
        {
            "doubleSided" : true,
            "name" : "Material",
            "pbrMetallicRoughness" : {
                "baseColorFactor" : [
                    0.8000000715255737,
                    0.016744349151849747,
                    0.08439595252275467,
                    1
                ],
                "metallicFactor" : 0,
                "roughnessFactor" : 0.4000000059604645
            }
        }
    ],
    "meshes" : [
        {
            "extras" : {
                "Roundcube" : 1,
                "change" : 0,
                "radius" : 0.05000000074505806,
                "size" : [
                    0.0,
                    0.0,
                    0.20000000298023224
                ],
                "arc_div" : 8,
                "lin_div" : 0.0,
                "div_type" : "CORNERS",
                "odd_axis_align" : 0,
                "no_limit" : 0
            },
            "name" : "EyeHoleMesh",
            "primitives" : [
                {
                    "attributes" : {
                        "POSITION" : 0,
                        "NORMAL" : 1
                    },
                    "indices" : 2,
                    "material" : 0
                }
            ]
        },
        {
            "extras" : {
                "Roundcube" : 1,
                "change" : 0,
                "radius" : 0.5,
                "size" : [
                    0.0,
                    0.0,
                    2.5
                ],
                "arc_div" : 8,
                "lin_div" : 0.0,
                "div_type" : "CORNERS",
                "odd_axis_align" : 0,
                "no_limit" : 0
            },
            "name" : "Mesh",
            "primitives" : [
                {
                    "attributes" : {
                        "POSITION" : 3,
                        "NORMAL" : 4
                    },
                    "indices" : 5,
                    "material" : 1
                }
            ]
        },
        {
            "name" : "GroundMesh",
            "primitives" : [
                {
                    "attributes" : {
                        "POSITION" : 6,
                        "NORMAL" : 7,
                        "TANGENT" : 8,
                        "TEXCOORD_0" : 9
                    },
                    "indices" : 10,
                    "material" : 2
                }
            ]
        },
        {
            "name" : "KerbMesh",
            "primitives" : [
                {
                    "attributes" : {
                        "POSITION" : 11,
                        "NORMAL" : 12,
                        "TANGENT" : 13,
                        "TEXCOORD_0" : 14
                    },
                    "indices" : 15,
                    "material" : 3
                }
            ]
        },
        {
            "name" : "KerbMesh",
            "primitives" : [
                {
                    "attributes" : {
                        "POSITION" : 16,
                        "NORMAL" : 17,
                        "TANGENT" : 18,
                        "TEXCOORD_0" : 19
                    },
                    "indices" : 15,
                    "material" : 3
                }
            ]
        },
        {
            "name" : "EyeHole mesh comment",
            "primitives" : [
                {
                    "attributes" : {
                        "POSITION" : 20,
                        "NORMAL" : 21,
                        "TANGENT" : 22,
                        "TEXCOORD_0" : 23
                    },
                    "indices" : 24,
                    "material" : 4
                }
            ]
        }
    ],
    "accessors" : [
        {
            "bufferView" : 0,
            "componentType" : 5126,
            "count" : 3328,
            "max" : [
                -0.011310935020446777,
                0.03802576661109924,
                0.09442615509033203
            ],
            "min" : [
                -0.04558587074279785,
                -0.3380221128463745,
                -0.1001737117767334
            ],
            "type" : "VEC3"
        },
        {
            "bufferView" : 1,
            "componentType" : 5126,
            "count" : 3328,
            "type" : "VEC3"
        },
        {
            "bufferView" : 2,
            "componentType" : 5123,
            "count" : 4992,
            "type" : "SCALAR"
        },
        {
            "bufferView" : 3,
            "componentType" : 5126,
            "count" : 6658,
            "max" : [
                0.497050017118454,
                0.497050017118454,
                1.244773507118225
            ],
            "min" : [
                -0.497050017118454,
                -0.497050017118454,
                -1.244773507118225
            ],
            "type" : "VEC3"
        },
        {
            "bufferView" : 4,
            "componentType" : 5126,
            "count" : 6658,
            "type" : "VEC3"
        },
        {
            "bufferView" : 5,
            "componentType" : 5123,
            "count" : 39936,
            "type" : "SCALAR"
        },
        {
            "bufferView" : 6,
            "componentType" : 5126,
            "count" : 24,
            "max" : [
                5,
                5,
                0.125
            ],
            "min" : [
                -5,
                -5,
                -0.125
            ],
            "type" : "VEC3"
        },
        {
            "bufferView" : 7,
            "componentType" : 5126,
            "count" : 24,
            "type" : "VEC3"
        },
        {
            "bufferView" : 8,
            "componentType" : 5126,
            "count" : 24,
            "type" : "VEC4"
        },
        {
            "bufferView" : 9,
            "componentType" : 5126,
            "count" : 24,
            "type" : "VEC2"
        },
        {
            "bufferView" : 10,
            "componentType" : 5123,
            "count" : 36,
            "type" : "SCALAR"
        },
        {
            "bufferView" : 11,
            "componentType" : 5126,
            "count" : 96,
            "max" : [
                5,
                1.25,
                0.25
            ],
            "min" : [
                -5,
                -1.25,
                -0.25
            ],
            "type" : "VEC3"
        },
        {
            "bufferView" : 12,
            "componentType" : 5126,
            "count" : 96,
            "type" : "VEC3"
        },
        {
            "bufferView" : 13,
            "componentType" : 5126,
            "count" : 96,
            "type" : "VEC4"
        },
        {
            "bufferView" : 14,
            "componentType" : 5126,
            "count" : 96,
            "type" : "VEC2"
        },
        {
            "bufferView" : 15,
            "componentType" : 5123,
            "count" : 132,
            "type" : "SCALAR"
        },
        {
            "bufferView" : 16,
            "componentType" : 5126,
            "count" : 96,
            "max" : [
                5,
                1.25,
                0.25
            ],
            "min" : [
                -5,
                -1.25,
                -0.25
            ],
            "type" : "VEC3"
        },
        {
            "bufferView" : 17,
            "componentType" : 5126,
            "count" : 96,
            "type" : "VEC3"
        },
        {
            "bufferView" : 18,
            "componentType" : 5126,
            "count" : 96,
            "type" : "VEC4"
        },
        {
            "bufferView" : 19,
            "componentType" : 5126,
            "count" : 96,
            "type" : "VEC2"
        },
        {
            "bufferView" : 20,
            "componentType" : 5126,
            "count" : 26592,
            "max" : [
                8.528818130493164,
                0.19753248989582062,
                0
            ],
            "min" : [
                -1.09514319896698,
                -1.49419105052948,
                0
            ],
            "type" : "VEC3"
        },
        {
            "bufferView" : 21,
            "componentType" : 5126,
            "count" : 26592,
            "type" : "VEC3"
        },
        {
            "bufferView" : 22,
            "componentType" : 5126,
            "count" : 26592,
            "type" : "VEC4"
        },
        {
            "bufferView" : 23,
            "componentType" : 5126,
            "count" : 26592,
            "type" : "VEC2"
        },
        {
            "bufferView" : 24,
            "componentType" : 5123,
            "count" : 58779,
            "type" : "SCALAR"
        }
    ],
    "bufferViews" : [
        {
            "buffer" : 0,
            "byteLength" : 39936,
            "byteOffset" : 0
        },
        {
            "buffer" : 0,
            "byteLength" : 39936,
            "byteOffset" : 39936
        },
        {
            "buffer" : 0,
            "byteLength" : 9984,
            "byteOffset" : 79872
        },
        {
            "buffer" : 0,
            "byteLength" : 79896,
            "byteOffset" : 89856
        },
        {
            "buffer" : 0,
            "byteLength" : 79896,
            "byteOffset" : 169752
        },
        {
            "buffer" : 0,
            "byteLength" : 79872,
            "byteOffset" : 249648
        },
        {
            "buffer" : 0,
            "byteLength" : 288,
            "byteOffset" : 329520
        },
        {
            "buffer" : 0,
            "byteLength" : 288,
            "byteOffset" : 329808
        },
        {
            "buffer" : 0,
            "byteLength" : 384,
            "byteOffset" : 330096
        },
        {
            "buffer" : 0,
            "byteLength" : 192,
            "byteOffset" : 330480
        },
        {
            "buffer" : 0,
            "byteLength" : 72,
            "byteOffset" : 330672
        },
        {
            "buffer" : 0,
            "byteLength" : 1152,
            "byteOffset" : 330744
        },
        {
            "buffer" : 0,
            "byteLength" : 1152,
            "byteOffset" : 331896
        },
        {
            "buffer" : 0,
            "byteLength" : 1536,
            "byteOffset" : 333048
        },
        {
            "buffer" : 0,
            "byteLength" : 768,
            "byteOffset" : 334584
        },
        {
            "buffer" : 0,
            "byteLength" : 264,
            "byteOffset" : 335352
        },
        {
            "buffer" : 0,
            "byteLength" : 1152,
            "byteOffset" : 335616
        },
        {
            "buffer" : 0,
            "byteLength" : 1152,
            "byteOffset" : 336768
        },
        {
            "buffer" : 0,
            "byteLength" : 1536,
            "byteOffset" : 337920
        },
        {
            "buffer" : 0,
            "byteLength" : 768,
            "byteOffset" : 339456
        },
        {
            "buffer" : 0,
            "byteLength" : 319104,
            "byteOffset" : 340224
        },
        {
            "buffer" : 0,
            "byteLength" : 319104,
            "byteOffset" : 659328
        },
        {
            "buffer" : 0,
            "byteLength" : 425472,
            "byteOffset" : 978432
        },
        {
            "buffer" : 0,
            "byteLength" : 212736,
            "byteOffset" : 1403904
        },
        {
            "buffer" : 0,
            "byteLength" : 117558,
            "byteOffset" : 1616640
        }
    ],
    "buffers" : [
        {
            "byteLength" : 1734200,
            "uri" : "level_zero_alt.bin"
        }
    ]
}
