{
    "asset" : {
        "generator" : "Khronos glTF Blender I/O v3.2.40",
        "version" : "2.0"
    },
    "extensionsUsed" : [
        "KHR_lights_punctual"
    ],
    "extensionsRequired" : [
        "KHR_lights_punctual"
    ],
    "extensions" : {
        "KHR_lights_punctual" : {
            "lights" : [
                {
                    "color" : [
                        1,
                        1,
                        1
                    ],
                    "intensity" : 500,
                    "type" : "point",
                    "name" : "Light"
                },
                {
                    "color" : [
                        0.24228084087371826,
                        0.3139885365962982,
                        0.14412856101989746
                    ],
                    "intensity" : 20,
                    "type" : "point",
                    "name" : "Point"
                }
            ]
        }
    },
    "scene" : 0,
    "scenes" : [
        {
            "name" : "Scene",
            "nodes" : [
                0,
                1,
                2,
                3,
                6
            ]
        }
    ],
    "nodes" : [
        {
            "mesh" : 0,
            "name" : "Ground"
        },
        {
            "extensions" : {
                "KHR_lights_punctual" : {
                    "light" : 0
                }
            },
            "name" : "Light",
            "rotation" : [
                -0.2841663062572479,
                -0.34203392267227173,
                0.7269423604011536,
                0.5232754349708557
            ],
            "translation" : [
                4.076245307922363,
                1.0054539442062378,
                5.903861999511719
            ]
        },
        {
            "mesh" : 1,
            "name" : "KerbRight",
            "translation" : [
                0,
                3.75,
                0.10000000149011612
            ]
        },
        {
            "mesh" : 2,
            "name" : "KerbLeft",
            "rotation" : [
                0,
                0,
                -1,
                7.549790126404332e-08
            ],
            "translation" : [
                0,
                -3.75,
                0.10000000149011612
            ]
        },
        {
            "mesh" : 3,
            "name" : "EyeHole",
            "scale" : [
                2,
                1,
                1
            ],
            "translation" : [
                0.5,
                0.15000000596046448,
                0.75
            ]
        },
        {
            "extensions" : {
                "KHR_lights_punctual" : {
                    "light" : 1
                }
            },
            "name" : "Point",
            "rotation" : [
                -0.7071068286895752,
                0,
                0,
                0.7071068286895752
            ]
        },
        {
            "children" : [
                4,
                5
            ],
            "mesh" : 4,
            "name" : "PlayerCharacter",
            "translation" : [
                0,
                0,
                1
            ]
        }
    ],
    "materials" : [
        {
            "doubleSided" : true,
            "name" : "GroundMaterial",
            "pbrMetallicRoughness" : {
                "baseColorFactor" : [
                    0.019999999552965164,
                    0.019999999552965164,
                    0.019999999552965164,
                    1
                ],
                "metallicFactor" : 0,
                "roughnessFactor" : 0.949999988079071
            }
        },
        {
            "doubleSided" : true,
            "name" : "KerbMaterial",
            "pbrMetallicRoughness" : {
                "baseColorFactor" : [
                    0.25,
                    0.25,
                    0.25,
                    1
                ],
                "metallicFactor" : 0,
                "roughnessFactor" : 0.949999988079071
            }
        },
        {
            "doubleSided" : true,
            "name" : "EyeHoleMaterial",
            "pbrMetallicRoughness" : {
                "baseColorFactor" : [
                    0,
                    0,
                    0,
                    1
                ],
                "metallicFactor" : 0,
                "roughnessFactor" : 0.5
            }
        },
        {
            "alphaMode" : "BLEND",
            "doubleSided" : true,
            "emissiveFactor" : [
                1,
                1,
                1
            ],
            "name" : "PlayerCharacterMaterial",
            "pbrMetallicRoughness" : {
                "baseColorFactor" : [
                    0.949999988079071,
                    0.949999988079071,
                    0.949999988079071,
                    0.10493826866149902
                ],
                "metallicFactor" : 0,
                "roughnessFactor" : 0.25
            }
        }
    ],
    "meshes" : [
        {
            "name" : "GroundMesh",
            "primitives" : [
                {
                    "attributes" : {
                        "POSITION" : 0,
                        "NORMAL" : 1,
                        "TANGENT" : 2,
                        "TEXCOORD_0" : 3
                    },
                    "indices" : 4,
                    "material" : 0
                }
            ]
        },
        {
            "name" : "KerbMesh",
            "primitives" : [
                {
                    "attributes" : {
                        "POSITION" : 5,
                        "NORMAL" : 6,
                        "TANGENT" : 7,
                        "TEXCOORD_0" : 8
                    },
                    "indices" : 9,
                    "material" : 1
                }
            ]
        },
        {
            "name" : "KerbMesh",
            "primitives" : [
                {
                    "attributes" : {
                        "POSITION" : 10,
                        "NORMAL" : 11,
                        "TANGENT" : 12,
                        "TEXCOORD_0" : 13
                    },
                    "indices" : 9,
                    "material" : 1
                }
            ]
        },
        {
            "extras" : {
                "Roundcube" : 1,
                "change" : 0,
                "radius" : 0.05000000074505806,
                "size" : [
                    0.0,
                    0.0,
                    0.20000000298023224
                ],
                "arc_div" : 8,
                "lin_div" : 0.0,
                "div_type" : "CORNERS",
                "odd_axis_align" : 0,
                "no_limit" : 0
            },
            "name" : "EyeHoleMesh",
            "primitives" : [
                {
                    "attributes" : {
                        "POSITION" : 14,
                        "NORMAL" : 15
                    },
                    "indices" : 16,
                    "material" : 2
                }
            ]
        },
        {
            "extras" : {
                "Roundcube" : 1,
                "change" : 0,
                "radius" : 0.5,
                "size" : [
                    0.0,
                    0.0,
                    2.5
                ],
                "arc_div" : 8,
                "lin_div" : 0.0,
                "div_type" : "CORNERS",
                "odd_axis_align" : 0,
                "no_limit" : 0
            },
            "name" : "PlayerCharacterMesh",
            "primitives" : [
                {
                    "attributes" : {
                        "POSITION" : 17,
                        "NORMAL" : 18
                    },
                    "indices" : 19,
                    "material" : 3
                }
            ]
        }
    ],
    "accessors" : [
        {
            "bufferView" : 0,
            "componentType" : 5126,
            "count" : 24,
            "max" : [
                5,
                5,
                0.125
            ],
            "min" : [
                -5,
                -5,
                -0.125
            ],
            "type" : "VEC3"
        },
        {
            "bufferView" : 1,
            "componentType" : 5126,
            "count" : 24,
            "type" : "VEC3"
        },
        {
            "bufferView" : 2,
            "componentType" : 5126,
            "count" : 24,
            "type" : "VEC4"
        },
        {
            "bufferView" : 3,
            "componentType" : 5126,
            "count" : 24,
            "type" : "VEC2"
        },
        {
            "bufferView" : 4,
            "componentType" : 5123,
            "count" : 36,
            "type" : "SCALAR"
        },
        {
            "bufferView" : 5,
            "componentType" : 5126,
            "count" : 96,
            "max" : [
                5,
                1.25,
                0.25
            ],
            "min" : [
                -5,
                -1.25,
                -0.25
            ],
            "type" : "VEC3"
        },
        {
            "bufferView" : 6,
            "componentType" : 5126,
            "count" : 96,
            "type" : "VEC3"
        },
        {
            "bufferView" : 7,
            "componentType" : 5126,
            "count" : 96,
            "type" : "VEC4"
        },
        {
            "bufferView" : 8,
            "componentType" : 5126,
            "count" : 96,
            "type" : "VEC2"
        },
        {
            "bufferView" : 9,
            "componentType" : 5123,
            "count" : 132,
            "type" : "SCALAR"
        },
        {
            "bufferView" : 10,
            "componentType" : 5126,
            "count" : 96,
            "max" : [
                5,
                1.25,
                0.25
            ],
            "min" : [
                -5,
                -1.25,
                -0.25
            ],
            "type" : "VEC3"
        },
        {
            "bufferView" : 11,
            "componentType" : 5126,
            "count" : 96,
            "type" : "VEC3"
        },
        {
            "bufferView" : 12,
            "componentType" : 5126,
            "count" : 96,
            "type" : "VEC4"
        },
        {
            "bufferView" : 13,
            "componentType" : 5126,
            "count" : 96,
            "type" : "VEC2"
        },
        {
            "bufferView" : 14,
            "componentType" : 5126,
            "count" : 3328,
            "max" : [
                -0.002316907048225403,
                0.04717373847961426,
                0.09772688150405884
            ],
            "min" : [
                -0.02551223337650299,
                -0.3471737205982208,
                -0.10000014305114746
            ],
            "type" : "VEC3"
        },
        {
            "bufferView" : 15,
            "componentType" : 5126,
            "count" : 3328,
            "type" : "VEC3"
        },
        {
            "bufferView" : 16,
            "componentType" : 5123,
            "count" : 4992,
            "type" : "SCALAR"
        },
        {
            "bufferView" : 17,
            "componentType" : 5126,
            "count" : 418,
            "max" : [
                0.5,
                0.5,
                1.25
            ],
            "min" : [
                -0.5,
                -0.5,
                -1.25
            ],
            "type" : "VEC3"
        },
        {
            "bufferView" : 18,
            "componentType" : 5126,
            "count" : 418,
            "type" : "VEC3"
        },
        {
            "bufferView" : 19,
            "componentType" : 5123,
            "count" : 2496,
            "type" : "SCALAR"
        }
    ],
    "bufferViews" : [
        {
            "buffer" : 0,
            "byteLength" : 288,
            "byteOffset" : 0
        },
        {
            "buffer" : 0,
            "byteLength" : 288,
            "byteOffset" : 288
        },
        {
            "buffer" : 0,
            "byteLength" : 384,
            "byteOffset" : 576
        },
        {
            "buffer" : 0,
            "byteLength" : 192,
            "byteOffset" : 960
        },
        {
            "buffer" : 0,
            "byteLength" : 72,
            "byteOffset" : 1152
        },
        {
            "buffer" : 0,
            "byteLength" : 1152,
            "byteOffset" : 1224
        },
        {
            "buffer" : 0,
            "byteLength" : 1152,
            "byteOffset" : 2376
        },
        {
            "buffer" : 0,
            "byteLength" : 1536,
            "byteOffset" : 3528
        },
        {
            "buffer" : 0,
            "byteLength" : 768,
            "byteOffset" : 5064
        },
        {
            "buffer" : 0,
            "byteLength" : 264,
            "byteOffset" : 5832
        },
        {
            "buffer" : 0,
            "byteLength" : 1152,
            "byteOffset" : 6096
        },
        {
            "buffer" : 0,
            "byteLength" : 1152,
            "byteOffset" : 7248
        },
        {
            "buffer" : 0,
            "byteLength" : 1536,
            "byteOffset" : 8400
        },
        {
            "buffer" : 0,
            "byteLength" : 768,
            "byteOffset" : 9936
        },
        {
            "buffer" : 0,
            "byteLength" : 39936,
            "byteOffset" : 10704
        },
        {
            "buffer" : 0,
            "byteLength" : 39936,
            "byteOffset" : 50640
        },
        {
            "buffer" : 0,
            "byteLength" : 9984,
            "byteOffset" : 90576
        },
        {
            "buffer" : 0,
            "byteLength" : 5016,
            "byteOffset" : 100560
        },
        {
            "buffer" : 0,
            "byteLength" : 5016,
            "byteOffset" : 105576
        },
        {
            "buffer" : 0,
            "byteLength" : 4992,
            "byteOffset" : 110592
        }
    ],
    "buffers" : [
        {
            "byteLength" : 115584,
            "uri" : "level_zero_alt.bin"
        }
    ]
}
